<?xml version="1.0" encoding="utf-8"?>
<!-- Generator: Adobe Illustrator 26.0.1, SVG Export Plug-In . SVG Version: 6.00 Build 0)  -->
<svg version="1.1" baseProfile="tiny" id="Laag_1" xmlns="http://www.w3.org/2000/svg" xmlns:xlink="http://www.w3.org/1999/xlink"
	 x="0px" y="0px" viewBox="0 0 1190.6 841.9" overflow="visible" xml:space="preserve">
<g>
	<path d="M505.6,414.4c0-6.7-5.4-12.2-12.1-12.2c-6.7,0-12.1,5.5-12.1,12.2c0,6.7,5.4,12.2,12.1,12.2
		C500.2,426.6,505.6,421.2,505.6,414.4"/>
	<path d="M460.9,414.4c0-6.7-5.4-12.2-12.1-12.2c-6.7,0-12.1,5.5-12.1,12.2c0,6.7,5.4,12.2,12.1,12.2
		C455.5,426.6,460.9,421.2,460.9,414.4"/>
	<path d="M493.5,438.6c-10.2,0-18.9-6.4-22.4-15.4c-3.5,9-12.2,15.4-22.4,15.4c-9.2,0-17.2-5.2-21.2-12.8h-96.5
		c-9.3,0-17.8,3.7-24.1,9.6v13.3c4.5-8.8,13.6-14.8,24.1-14.8h51.4c-3.3,7.2-6.6,15-9.8,23.3c-3.1,8.2-5.7,16.1-8,23.5
		c-11.2,0-22.4,0-33.6,0c-4.5,0-10,0.5-16.1,2c-3,0.7-5.6,1.6-8,2.6v8.8c7.4-3.4,15.5-5.3,24.1-5.3h39.4c4.1-7.4,12-12.5,21-12.5
		c10.6,0,19.5,6.9,22.8,16.4c3.2-9.5,12.2-16.4,22.8-16.4c9.2,0,17.2,5.2,21.2,12.8c35.8,0.1,71.7,0.3,107.5,0.4
		c0.1-21.2,0.3-42.3,0.4-63.5c-17.2,0-34.4,0-51.6,0C510.5,433.6,502.6,438.6,493.5,438.6z"/>
	<path d="M425,500.6c0,6.7,5.4,12.2,12.1,12.2c6.7,0,12.1-5.5,12.1-12.2c0-6.7-5.4-12.2-12.1-12.2C430.4,488.4,425,493.9,425,500.6"
		/>
	<path d="M307,336.9c7.4-3.4,15.5-5.3,24.1-5.3h202.1c4.1-7.4,12-12.5,21-12.5c13.3,0,24,10.8,24,24.2s-10.8,24.2-24,24.2
		c-9.2,0-17.1-5.2-21.2-12.8h-202c-9.3,0-17.8,3.7-24.1,9.6v13.2c4.5-8.8,13.6-14.8,24.1-14.8h94.3c-7.7,10-15,20.6-21.9,31.8h-72.4
		c-8.5,0-16.6,1.6-24.1,4.6v8.8c7.4-3.4,15.5-5.3,24.1-5.3h96.7c4.1-7.4,12-12.5,21-12.5c10.2,0,18.9,6.4,22.4,15.4
		c3.5-9,12.2-15.4,22.4-15.4c9.2,0,17.2,5.2,21.2,12.8h105.5v-73.2l-156.7-91.1L307,329.9V336.9z"/>
	<path d="M566.4,343.4c0-6.7-5.4-12.2-12.1-12.2c-6.7,0-12.1,5.5-12.1,12.2c0,6.7,5.4,12.2,12.1,12.2
		C560.9,355.5,566.4,350.1,566.4,343.4"/>
	<path d="M538.9,512.3h-80.8c-4.1,7.5-12,12.5-21,12.5c-10.6,0-19.5-6.9-22.8-16.4c-3.2,9.5-12.2,16.4-22.8,16.4
		c-9.2,0-17.2-5.2-21.2-12.8h-39.3c-6,0-11.8,1.5-16.7,4.3l149.3,86.8l156.1-90.7H538.9z"/>
	<path d="M379.4,500.6c0,6.7,5.4,12.2,12.1,12.2c6.7,0,12.1-5.5,12.1-12.2c0-6.7-5.4-12.2-12.1-12.2
		C384.9,488.4,379.4,493.9,379.4,500.6"/>
	<g>
		<g transform="translate(14.311311, 133.323111)">
			<g>
				<path fill="#FFFFFF" d="M553.1,312.4c0,3.4-0.8,6.6-2.5,9.6c-1.6,3-4.1,5.4-7.6,7.2c-3.4,1.8-7.7,2.7-12.9,2.7h-10.7v24.4h-12.7
					v-63.6h23.4c4.9,0,9.1,0.9,12.5,2.6c3.5,1.7,6.1,4,7.8,7C552.2,305.3,553.1,308.6,553.1,312.4z M529.6,321.6
					c3.5,0,6.1-0.8,7.8-2.4c1.7-1.6,2.6-3.9,2.6-6.9c0-6.2-3.5-9.2-10.3-9.2h-10.2v18.5H529.6z"/>
			</g>
		</g>
	</g>
	<g>
		<g transform="translate(27.684933, 133.323111)">
			<g>
				<path d="M563.9,292.8v63.6h-12.7v-63.6H563.9z"/>
			</g>
		</g>
	</g>
	<g>
		<g transform="translate(33.799843, 133.323111)">
			<g>
				<path d="M614.6,312c-1.4-2.7-3.4-4.7-6-6.1c-2.6-1.4-5.5-2.1-8.9-2.1c-3.8,0-7.2,0.9-10.1,2.6c-2.9,1.7-5.2,4.1-6.8,7.2
					c-1.6,3.2-2.5,6.8-2.5,10.9c0,4.3,0.8,8,2.5,11.1c1.7,3.2,4,5.6,7,7.3c3,1.7,6.4,2.5,10.4,2.5c4.9,0,8.8-1.3,11.9-3.9
					c3.1-2.6,5.1-6.2,6.1-10.8h-21.9v-9.7h34.4v11.1c-0.9,4.4-2.7,8.6-5.5,12.4c-2.8,3.8-6.3,6.8-10.7,9.1
					c-4.4,2.2-9.3,3.4-14.8,3.4c-6.1,0-11.7-1.4-16.6-4.1c-5-2.7-8.9-6.6-11.7-11.5c-2.8-4.9-4.2-10.5-4.2-16.8
					c0-6.2,1.4-11.8,4.2-16.8c2.8-4.9,6.7-8.8,11.7-11.6c4.9-2.7,10.5-4.1,16.6-4.1c7.1,0,13.4,1.7,18.6,5.2
					c5.3,3.5,8.9,8.3,10.9,14.7H614.6z"/>
			</g>
		</g>
	</g>
	<g>
		<g transform="translate(50.692832, 133.323111)">
			<g>
				<path d="M636.2,292.8v63.6h-12.7v-63.6H636.2z"/>
			</g>
		</g>
	</g>
	<g>
		<g transform="translate(56.807742, 133.323111)">
			<g>
				<path d="M675.4,356.4l-14-24.8h-6v24.8h-12.7v-63.6h23.9c4.9,0,9.1,0.9,12.5,2.6c3.5,1.7,6.1,4.1,7.8,7c1.7,2.9,2.6,6.2,2.6,9.9
					c0,4.2-1.2,8-3.7,11.3c-2.4,3.4-6,5.7-10.8,7l15.2,25.7H675.4z M655.4,322.1H666c3.4,0,6-0.8,7.7-2.5c1.7-1.7,2.6-4,2.6-7
					c0-2.9-0.9-5.2-2.6-6.8c-1.7-1.6-4.3-2.4-7.7-2.4h-10.7V322.1z"/>
			</g>
		</g>
	</g>
	<g>
		<g transform="translate(70.907228, 133.323111)">
			<g>
				<path d="M716.4,357.1c-6,0-11.4-1.4-16.4-4.2c-5-2.8-8.9-6.7-11.8-11.6c-2.9-4.9-4.3-10.6-4.3-16.8c0-6.2,1.4-11.8,4.3-16.7
					c2.9-4.9,6.9-8.8,11.8-11.6c5-2.8,10.5-4.2,16.4-4.2c6,0,11.5,1.4,16.4,4.2c4.9,2.8,8.9,6.7,11.8,11.6
					c2.9,4.9,4.3,10.5,4.3,16.7c0,6.3-1.5,11.9-4.3,16.8c-2.9,4.9-6.8,8.8-11.8,11.6C727.8,355.7,722.3,357.1,716.4,357.1z
					 M716.4,345.7c3.8,0,7.2-0.9,10.1-2.6c2.9-1.7,5.2-4.2,6.9-7.4c1.6-3.2,2.5-7,2.5-11.2c0-4.3-0.8-8-2.5-11.2
					c-1.6-3.2-3.9-5.6-6.9-7.3c-2.9-1.7-6.3-2.5-10.1-2.5c-3.8,0-7.2,0.8-10.2,2.5c-2.9,1.7-5.2,4.1-6.9,7.3
					c-1.6,3.2-2.5,6.9-2.5,11.2c0,4.2,0.8,8,2.5,11.2c1.6,3.2,3.9,5.7,6.9,7.4C709.2,344.8,712.6,345.7,716.4,345.7z"/>
			</g>
		</g>
	</g>
	<g>
		<g transform="translate(88.174153, 133.323111)">
			<g>
				<path d="M795.5,356.4h-12.7l-28.9-43.6v43.6h-12.7v-63.6h12.7l28.9,43.7v-43.7h12.7V356.4z"/>
			</g>
		</g>
	</g>
</g>
</svg>
