<?xml version="1.0" encoding="utf-8"?>
<!-- Generator: Adobe Illustrator 26.0.1, SVG Export Plug-In . SVG Version: 6.00 Build 0)  -->
<svg version="1.1" baseProfile="tiny" id="Laag_1" xmlns="http://www.w3.org/2000/svg" xmlns:xlink="http://www.w3.org/1999/xlink"
	 x="0px" y="0px" viewBox="0 0 1190.6 841.9" overflow="visible" xml:space="preserve">
<g>
	<g>
		<path d="M623.8,417.6c0-4.6-3.7-8.3-8.2-8.3c-4.5,0-8.2,3.7-8.2,8.3c0,4.6,3.7,8.3,8.2,8.3C620.1,425.9,623.8,422.2,623.8,417.6"
			/>
		<path d="M593.4,417.6c0-4.6-3.7-8.3-8.2-8.3c-4.5,0-8.2,3.7-8.2,8.3c0,4.6,3.7,8.3,8.2,8.3C589.7,425.9,593.4,422.2,593.4,417.6"
			/>
		<path d="M615.6,434c-6.9,0-12.8-4.3-15.2-10.4c-2.4,6.1-8.3,10.4-15.2,10.4c-6.2,0-11.6-3.5-14.4-8.7h-65.4
			c-6.3,0-12.1,2.5-16.4,6.5v9c3.1-6,9.2-10,16.4-10h34.8c-4.8,10.5-8.8,21.1-12,31.8h-22.8c-5.8,0-11.3,1.1-16.4,3.1v6
			c5-2.3,10.5-3.6,16.4-3.6h26.7c2.8-5,8.1-8.5,14.3-8.5c7.2,0,13.3,4.7,15.4,11.1c2.2-6.5,8.3-11.1,15.4-11.1
			c6.2,0,11.6,3.5,14.4,8.7h109.8v-42.8h-71.7C627,430.6,621.7,434,615.6,434z"/>
		<path d="M569.1,476c0,4.6,3.7,8.3,8.2,8.3s8.2-3.7,8.2-8.3c0-4.6-3.7-8.3-8.2-8.3S569.1,471.5,569.1,476"/>
		<path d="M489.1,365c5-2.3,10.5-3.6,16.4-3.6h137c2.8-5,8.1-8.5,14.3-8.5c9,0,16.3,7.3,16.3,16.4c0,9.1-7.3,16.4-16.3,16.4
			c-6.2,0-11.6-3.5-14.4-8.7H505.4c-6.3,0-12.1,2.5-16.4,6.5v9c3.1-5.9,9.2-10,16.4-10h63.9c-5.2,6.8-10.2,14-14.8,21.5h-49.1
			c-5.8,0-11.3,1.1-16.4,3.1v6c5-2.3,10.5-3.6,16.4-3.6h65.5c2.8-5,8.1-8.5,14.3-8.5c6.9,0,12.8,4.3,15.2,10.4
			c2.4-6.1,8.3-10.4,15.2-10.4c6.2,0,11.6,3.5,14.4,8.7h71.5v-49.6l-106.2-61.7l-106.2,61.7V365z"/>
		<path d="M664.9,369.4c0-4.6-3.7-8.3-8.2-8.3c-4.5,0-8.2,3.7-8.2,8.3c0,4.6,3.7,8.3,8.2,8.3C661.2,377.7,664.9,374,664.9,369.4"/>
		<path d="M646.3,484h-54.8c-2.8,5.1-8.1,8.5-14.3,8.5c-7.2,0-13.3-4.7-15.4-11.1c-2.2,6.5-8.3,11.1-15.4,11.1
			c-6.2,0-11.6-3.5-14.4-8.7h-26.6c-4.1,0-8,1-11.3,2.9l101.2,58.8L701.1,484H646.3z"/>
		<path d="M538.2,476c0,4.6,3.7,8.3,8.2,8.3c4.5,0,8.2-3.7,8.2-8.3c0-4.6-3.7-8.3-8.2-8.3C541.9,467.8,538.2,471.5,538.2,476"/>
	</g>
	<rect x="489" y="360.3" width="212.5" height="123.7"/>
	<rect x="632.6" y="351" width="42.6" height="26.6"/>
	<rect x="526.2" y="474.3" width="73" height="24.8"/>
	<rect x="490.9" y="476.6" transform="matrix(0.8749 0.4844 -0.4844 0.8749 296.0793 -181.0569)" width="15" height="11.7"/>
</g>
<g>
	<path fill="#FFFFFF" d="M624.6,423.2c-2.4,4.4-6.2,7.9-11.2,10.6c-5,2.7-11.3,4-18.7,4h-13.8v32.8h-22.2v-91.3h36
		c7.3,0,13.4,1.3,18.5,3.8c5,2.5,8.8,6,11.3,10.4c2.5,4.4,3.8,9.5,3.8,15.2C628.2,414,627,418.8,624.6,423.2z M602.5,417.1
		c2.1-2,3.1-4.8,3.1-8.4c0-3.6-1-6.5-3.1-8.5c-2.1-2-5.2-3-9.5-3h-12.1v22.9H593C597.2,420.1,600.4,419.1,602.5,417.1z"/>
</g>
</svg>
