<?xml version="1.0" encoding="utf-8"?>
<!-- Generator: Adobe Illustrator 26.0.1, SVG Export Plug-In . SVG Version: 6.00 Build 0)  -->
<svg version="1.1" baseProfile="tiny" id="Laag_1" xmlns="http://www.w3.org/2000/svg" xmlns:xlink="http://www.w3.org/1999/xlink"
	 x="0px" y="0px" viewBox="0 0 1190.6 841.9" overflow="visible" xml:space="preserve">
<g>
	<path d="M623.8,417.2c0-4.6-3.7-8.3-8.2-8.3c-4.5,0-8.2,3.7-8.2,8.3c0,4.6,3.7,8.3,8.2,8.3C620.1,425.4,623.8,421.7,623.8,417.2"/>
	<path d="M593.4,417.2c0-4.6-3.7-8.3-8.2-8.3c-4.5,0-8.2,3.7-8.2,8.3c0,4.6,3.7,8.3,8.2,8.3C589.7,425.4,593.4,421.7,593.4,417.2"/>
	<path d="M615.6,433.6c-6.9,0-12.8-4.3-15.2-10.4c-2.4,6.1-8.3,10.4-15.2,10.4c-6.2,0-11.6-3.5-14.4-8.7h-65.4
		c-6.3,0-12.1,2.5-16.4,6.5v9c3.1-6,9.2-10,16.4-10h34.8c-4.8,10.5-8.8,21.1-12,31.8h-22.8c-5.8,0-11.3,1.1-16.4,3.1v6
		c5-2.3,10.5-3.6,16.4-3.6h26.7c2.8-5,8.1-8.5,14.3-8.5c7.2,0,13.3,4.7,15.4,11.1c2.2-6.5,8.3-11.1,15.4-11.1
		c6.2,0,11.6,3.5,14.4,8.7h109.8v-42.8h-71.7C627,430.2,621.7,433.6,615.6,433.6z"/>
	<path d="M569.1,475.6c0,4.6,3.7,8.3,8.2,8.3s8.2-3.7,8.2-8.3c0-4.6-3.7-8.3-8.2-8.3S569.1,471,569.1,475.6"/>
	<path d="M489.1,364.6c5-2.3,10.5-3.6,16.4-3.6h137c2.8-5,8.1-8.5,14.3-8.5c9,0,16.3,7.3,16.3,16.4s-7.3,16.4-16.3,16.4
		c-6.2,0-11.6-3.5-14.4-8.7H505.4c-6.3,0-12.1,2.5-16.4,6.5v9c3.1-5.9,9.2-10,16.4-10h63.9c-5.2,6.8-10.2,14-14.8,21.5h-49.1
		c-5.8,0-11.3,1.1-16.4,3.1v6c5-2.3,10.5-3.6,16.4-3.6h65.5c2.8-5,8.1-8.5,14.3-8.5c6.9,0,12.8,4.3,15.2,10.4
		c2.4-6.1,8.3-10.4,15.2-10.4c6.2,0,11.6,3.5,14.4,8.7h71.5v-49.6l-106.2-61.7l-106.2,61.7V364.6z"/>
	<path d="M664.9,369c0-4.6-3.7-8.3-8.2-8.3c-4.5,0-8.2,3.7-8.2,8.3c0,4.6,3.7,8.3,8.2,8.3C661.2,377.2,664.9,373.5,664.9,369"/>
	<path d="M646.3,483.5h-54.8c-2.8,5.1-8.1,8.5-14.3,8.5c-7.2,0-13.3-4.7-15.4-11.1c-2.2,6.5-8.3,11.1-15.4,11.1
		c-6.2,0-11.6-3.5-14.4-8.7h-26.6c-4.1,0-8,1-11.3,2.9l101.2,58.8l105.8-61.5H646.3z"/>
	<path d="M538.2,475.6c0,4.6,3.7,8.3,8.2,8.3c4.5,0,8.2-3.7,8.2-8.3c0-4.6-3.7-8.3-8.2-8.3C541.9,467.3,538.2,471,538.2,475.6"/>
</g>
</svg>
