<svg xmlns="http://www.w3.org/2000/svg" width="39.194" height="39.194" viewBox="0 0 39.194 39.194">
  <path id="Icon_metro-cross" data-name="Icon metro-cross" d="M41.408,33.416h0l-11.89-11.89,11.89-11.89h0a1.228,1.228,0,0,0,0-1.732L35.79,2.286a1.228,1.228,0,0,0-1.732,0h0l-11.89,11.89L10.278,2.286h0a1.228,1.228,0,0,0-1.732,0L2.929,7.9a1.228,1.228,0,0,0,0,1.732h0l11.89,11.89L2.929,33.416h0a1.227,1.227,0,0,0,0,1.732l5.617,5.617a1.228,1.228,0,0,0,1.732,0h0l11.89-11.89,11.89,11.89h0a1.227,1.227,0,0,0,1.732,0l5.617-5.617a1.227,1.227,0,0,0,0-1.732Z" transform="translate(-2.571 -1.928)" fill="#fff"/>
</svg>
